# xmcd
#
# Track frame offsets:
#	180
#	15616
#	28651
#	39964
#	56798
#	71332
#	85919
#	96640
#	115885
#	131755
#	143226
#	154864
#	168483
#	184902
#	201798
#	214808
#	231672
#
# Disc length: 3213 seconds
#
# Revision: 1
# Processed by: cddbd v1.5.2PL0 Copyright (c) Steve Scherf et al.
# Submitted via: audiograbber 1.83.01
#
DISCID=fb0c8b11
DTITLE=Glory Train - 068 Zamar
DYEAR=2007
DGENRE=Gospel
TTITLE0=Save Me Today  - Gary Wright
TTITLE1=Seek Ye First His Kingdom  - River Jordan
TTITLE2=Heavens Life - Larry Cochran
TTITLE3=Real Life  - Corey Brook
TTITLE4=I´m Nothing Without You  - The Freedom Trio
TTITLE5=River Jordan  - River Jordan
TTITLE6=The Gosbel Flow  - Corol Decker
TTITLE7=Heaven´s So Far Away  - Charley Kyles
TTITLE8=If You Wanta Be Happy - Tiffany Bowman
TTITLE9=Just Like Fingers  - River Jordan
TTITLE10=Buildings Made Of Stone  - Llavonne Gladstone
TTITLE11=Take My Hand And Guide Me  - Ron Thompson
TTITLE12=Cruci Fied  - Robert Shilds
TTITLE13=The Next Right Thing  - Twice Robin
TTITLE14=Jump Out Of That Boat  - Roxanne Hays
TTITLE15=Light Of Heavens Door  - W P Smith
TTITLE16=I Wont Have Time To Say Good-bye  - The Glory Heirs
EXTD=
EXTT0=
EXTT1=
EXTT2=
EXTT3=
EXTT4=
EXTT5=
EXTT6=
EXTT7=
EXTT8=
EXTT9=
EXTT10=
EXTT11=
EXTT12=
EXTT13=
EXTT14=
EXTT15=
EXTT16=
PLAYORDER=
